<svg width="20" height="20" fill="none" xmlns="http://www.w3.org/2000/svg"><path opacity=".67" d="M17 1H7a2 2 0 0 0-2 2v3.101A5 5 0 0 1 6 6V3a1 1 0 0 1 1-1h10a1 1 0 0 1 1 1v14a1 1 0 0 1-1 1H7a1 1 0 0 1-1-1v-1H5v1a2 2 0 0 0 2 2h10a2 2 0 0 0 2-2V3a2 2 0 0 0-2-2z" fill="#605E5C"/><path d="M6 3a1 1 0 0 1 1-1h10a1 1 0 0 1 1 1v14a1 1 0 0 1-1 1H7a1 1 0 0 1-1-1v-1A5 5 0 1 0 6 6V3z" fill="#fff"/><path d="M1 11a5 5 0 1 1 5 5H4.08a4.17 4.17 0 0 0 1.67-3.33H6A1.67 1.67 0 1 0 4.33 11v1.67a3.33 3.33 0 0 1-2.5 3.22A3.2 3.2 0 0 1 1 16v-5z" fill="#9354FF"/><path d="M11.19 8a6.005 6.005 0 0 0-.721-.998L10.495 7h6a.5.5 0 0 1 .09.992l-.09.008H11.19z" fill="#C2AAFE"/><path d="M11.195 14a5.994 5.994 0 0 0 .461-1h4.843a.5.5 0 0 1 .09.992l-.09.008h-5.304z" fill="#9354FF"/><path d="M11.922 10h4.584a.5.5 0 0 1 .09.992l-.09.008h-4.5c0-.334-.028-.668-.084-1z" fill="#AB85FF"/></svg>